<svg width="6" height="21" viewBox="0 0 6 21" fill="none" xmlns="http://www.w3.org/2000/svg">
<path d="M0.25 10.75C0.25 11.4125 0.513748 12.0488 0.982498 12.5175C1.45125 12.9863 2.0875 13.25 2.75 13.25C3.4125 13.25 4.04875 12.9863 4.5175 12.5175C4.98625 12.0488 5.25 11.4125 5.25 10.75C5.25 10.0875 4.98625 9.45125 4.5175 8.9825C4.04875 8.51375 3.4125 8.25 2.75 8.25C2.0875 8.25 1.45125 8.51375 0.982498 8.9825C0.513748 9.45125 0.25 10.0875 0.25 10.75ZM0.25 3.25C0.25 3.9125 0.513748 4.54875 0.982498 5.0175C1.45125 5.48625 2.0875 5.75 2.75 5.75C3.4125 5.75 4.04875 5.48625 4.5175 5.0175C4.98625 4.54875 5.25 3.9125 5.25 3.25C5.25 2.5875 4.98625 1.95125 4.5175 1.4825C4.04875 1.01375 3.4125 0.75 2.75 0.75C2.0875 0.75 1.45125 1.01375 0.982498 1.4825C0.513748 1.95125 0.25 2.5875 0.25 3.25ZM0.25 18.25C0.25 18.9125 0.513748 19.5488 0.982498 20.0175C1.45125 20.4863 2.0875 20.75 2.75 20.75C3.4125 20.75 4.04875 20.4863 4.5175 20.0175C4.98625 19.5488 5.25 18.9125 5.25 18.25C5.25 17.5875 4.98625 16.9512 4.5175 16.4825C4.04875 16.0137 3.4125 15.75 2.75 15.75C2.0875 15.75 1.45125 16.0137 0.982498 16.4825C0.513748 16.9512 0.25 17.5875 0.25 18.25Z" fill="#1B1C1E"/>
</svg>
