<svg width="40" height="43" viewBox="0 0 40 43" fill="none" xmlns="http://www.w3.org/2000/svg">
<g opacity="0.5">
<path opacity="0.4" d="M33.5848 23.3059V33.9026C33.5848 36.6324 31.4801 39.5556 28.9502 40.4154L22.1684 42.6938C20.9779 43.1022 19.0432 43.1022 17.874 42.6938L11.0922 40.4154C8.54102 39.5556 6.45758 36.6324 6.45758 33.9026L6.47884 23.3059L15.8756 29.4963C18.1716 31.0224 21.9558 31.0224 24.2518 29.4963L33.5848 23.3059Z" fill="#1B1C1E"/>
<path d="M36.9863 9.59185L24.2519 1.14457C21.9558 -0.381524 18.1716 -0.381524 15.8756 1.14457L3.07732 9.59185C-1.02577 12.2786 -1.02577 18.3615 3.07732 21.0698L6.47886 23.3052L15.8756 29.4956C18.1716 31.0217 21.9558 31.0217 24.2519 29.4956L33.5848 23.3052L36.4974 21.3707V27.948C36.4974 28.8293 37.2202 29.5601 38.0918 29.5601C38.9635 29.5601 39.6863 28.8293 39.6863 27.948V17.3728C40.5367 14.6 39.6651 11.3759 36.9863 9.59185Z" fill="#1B1C1E"/>
</g>
</svg>
