<svg width="60" height="58" viewBox="0 0 60 58" fill="none" xmlns="http://www.w3.org/2000/svg">
<path opacity="0.4" d="M41.7214 45.8685H17.9872C16.9423 45.8685 15.9969 45.216 15.6486 44.2735L5.29912 16.1193C4.47813 13.8718 7.11526 11.9627 9.08067 13.3402L19.0321 20.2518C20.3507 21.1702 22.2414 20.6143 22.8136 19.1402L27.5157 6.96018C28.3118 4.85768 31.3719 4.85768 32.168 6.96018L36.87 19.1402C37.4422 20.6385 39.3081 21.1702 40.6516 20.2518L50.603 13.3402C52.5933 11.9627 55.2056 13.896 54.3846 16.1193L44.0351 44.2735C43.7117 45.216 42.7663 45.8685 41.7214 45.8685Z" fill="white"/>
<path d="M42.2936 53.1666H17.415C16.395 53.1666 15.5491 52.345 15.5491 51.3541C15.5491 50.3633 16.395 49.5416 17.415 49.5416H42.2936C43.3136 49.5416 44.1595 50.3633 44.1595 51.3541C44.1595 52.345 43.3136 53.1666 42.2936 53.1666Z" fill="white"/>
<path d="M36.0739 35.6459H23.6347C22.6146 35.6459 21.7688 34.8242 21.7688 33.8334C21.7688 32.8425 22.6146 32.0209 23.6347 32.0209H36.0739C37.094 32.0209 37.9398 32.8425 37.9398 33.8334C37.9398 34.8242 37.094 35.6459 36.0739 35.6459Z" fill="white"/>
</svg>
