<svg width="60" height="58" viewBox="0 0 60 58" fill="none" xmlns="http://www.w3.org/2000/svg">
<path opacity="0.4" d="M42.2936 18.7291C41.8209 18.7291 41.3482 18.5599 40.975 18.1974C40.2535 17.4966 40.2535 16.3366 40.975 15.6358L46.0751 10.6816C41.6965 7.05658 36.049 4.83325 29.8543 4.83325C16.1213 4.83325 4.97571 15.6599 4.97571 28.9999C4.97571 42.3399 16.1213 53.1666 29.8543 53.1666C43.5873 53.1666 54.7329 42.3399 54.7329 28.9999C54.7329 22.9824 52.444 17.4966 48.7122 13.2433L43.6121 18.1974C43.239 18.5599 42.7663 18.7291 42.2936 18.7291Z" fill="white"/>
<path d="M34.2081 28.565L31.7202 27.7192V22.3542H31.9192C33.188 22.3542 34.2081 23.4417 34.2081 24.7708C34.2081 25.7617 35.0539 26.5833 36.0739 26.5833C37.094 26.5833 37.9398 25.7617 37.9398 24.7708C37.9398 21.4358 35.2529 18.7292 31.9192 18.7292H31.7202V18.125C31.7202 17.1342 30.8743 16.3125 29.8543 16.3125C28.8343 16.3125 27.9884 17.1342 27.9884 18.125V18.7292H27.2421C24.2318 18.7292 21.7688 21.1942 21.7688 24.2392C21.7688 27.7675 23.8834 28.9033 25.5006 29.4592L27.9884 30.305V35.67H27.7894C26.5206 35.67 25.5006 34.5825 25.5006 33.2533C25.5006 32.2625 24.6547 31.4408 23.6347 31.4408C22.6146 31.4408 21.7688 32.2625 21.7688 33.2533C21.7688 36.5883 24.4557 39.295 27.7894 39.295H27.9884V39.8992C27.9884 40.89 28.8343 41.7117 29.8543 41.7117C30.8743 41.7117 31.7202 40.89 31.7202 39.8992V39.295H32.4665C35.4768 39.295 37.9398 36.83 37.9398 33.785C37.9398 30.2325 35.8252 29.0967 34.2081 28.565ZM26.7196 26.0033C25.8737 25.7133 25.5006 25.5442 25.5006 24.215C25.5006 23.1758 26.2967 22.33 27.2421 22.33H27.9884V26.4142L26.7196 26.0033ZM32.4665 35.6458H31.7202V31.5617L32.989 31.9967C33.8349 32.2867 34.2081 32.4558 34.2081 33.785C34.2081 34.8 33.4119 35.6458 32.4665 35.6458Z" fill="white"/>
<path d="M56.4495 4.13242C56.2505 3.69742 55.9021 3.33493 55.4294 3.14159C55.2055 3.04493 54.9567 2.99658 54.7079 2.99658H44.7565C43.7365 2.99658 42.8906 3.81825 42.8906 4.80908C42.8906 5.79991 43.7365 6.62158 44.7565 6.62158H50.2049L46.0503 10.6574C46.9956 11.4549 47.8664 12.3008 48.6874 13.2191L52.8421 9.18326V14.4999C52.8421 15.4908 53.6879 16.3124 54.7079 16.3124C55.728 16.3124 56.5738 15.4908 56.5738 14.4999V4.83325C56.5987 4.59159 56.549 4.37408 56.4495 4.13242Z" fill="white"/>
</svg>
