<svg width="40" height="39" viewBox="0 0 40 39" fill="none" xmlns="http://www.w3.org/2000/svg">
<path opacity="0.4" d="M28.9261 12.23C28.5597 12.23 28.1933 12.0985 27.904 11.8167C27.3448 11.2719 27.3448 10.3702 27.904 9.82539L31.8572 5.97422C28.4632 3.1563 24.0858 1.42798 19.284 1.42798C8.63925 1.42798 0 9.84417 0 20.2141C0 30.5841 8.63925 39.0003 19.284 39.0003C29.9288 39.0003 38.5681 30.5841 38.5681 20.2141C38.5681 15.5364 36.7939 11.2719 33.9013 7.96556L29.9481 11.8167C29.6589 12.0985 29.2925 12.23 28.9261 12.23Z" fill="#1B1C1E"/>
<path opacity="0.5" d="M22.6587 19.8759L20.7303 19.2184V15.0479H20.8846C21.8681 15.0479 22.6587 15.8932 22.6587 16.9265C22.6587 17.6967 23.3144 18.3354 24.105 18.3354C24.8957 18.3354 25.5514 17.6967 25.5514 16.9265C25.5514 14.334 23.4686 12.2299 20.8846 12.2299H20.7303V11.7603C20.7303 10.99 20.0747 10.3513 19.284 10.3513C18.4934 10.3513 17.8377 10.99 17.8377 11.7603V12.2299H17.2592C14.9259 12.2299 13.0167 14.1461 13.0167 16.5132C13.0167 19.2559 14.6559 20.1389 15.9093 20.571L17.8377 21.2285V25.399H17.6835C16.7 25.399 15.9093 24.5536 15.9093 23.5204C15.9093 22.7502 15.2537 22.1115 14.463 22.1115C13.6724 22.1115 13.0167 22.7502 13.0167 23.5204C13.0167 26.1129 15.0994 28.2169 17.6835 28.2169H17.8377V28.6866C17.8377 29.4568 18.4934 30.0956 19.284 30.0956C20.0747 30.0956 20.7303 29.4568 20.7303 28.6866V28.2169H21.3088C23.6422 28.2169 25.5514 26.3008 25.5514 23.9337C25.5514 21.1721 23.9122 20.2892 22.6587 19.8759ZM16.8542 17.8846C16.1986 17.6591 15.9093 17.5276 15.9093 16.4944C15.9093 15.6866 16.5264 15.0291 17.2592 15.0291H17.8377V18.2039L16.8542 17.8846ZM21.3088 25.3802H20.7303V22.2054L21.7138 22.5435C22.3695 22.769 22.6587 22.9005 22.6587 23.9337C22.6587 24.7227 22.0416 25.3802 21.3088 25.3802Z" fill="#1B1C1E"/>
<path opacity="0.5" d="M39.8987 0.882951C39.7444 0.5448 39.4745 0.263016 39.1081 0.112727C38.9345 0.037582 38.7416 0 38.5488 0H30.8352C30.0445 0 29.3889 0.638729 29.3889 1.40896C29.3889 2.17919 30.0445 2.81792 30.8352 2.81792H35.0584L31.838 5.95522C32.5708 6.57516 33.2457 7.23267 33.8821 7.94654L37.1025 4.80926V8.94221C37.1025 9.71244 37.7582 10.3512 38.5488 10.3512C39.3395 10.3512 39.9951 9.71244 39.9951 8.94221V1.42775C40.0144 1.23989 39.9758 1.07081 39.8987 0.882951Z" fill="#1B1C1E"/>
</svg>
