<svg width="40" height="50" viewBox="0 0 40 50" fill="none" xmlns="http://www.w3.org/2000/svg">
<g opacity="0.5">
<path opacity="0.4" d="M35.0633 14.275L34.7089 14.075L31.1899 12.075L23.9241 7.925C21.6962 6.65 18.3038 6.65 16.076 7.925L8.81013 12.075L5.29114 14.1L4.83544 14.35C0.303798 17.35 0 17.9 0 22.725V34.25C0 39.075 0.303798 39.625 4.93671 42.7L16.076 49.05C17.1899 49.7 18.5823 50 20 50C21.3924 50 22.8101 49.7 23.9241 49.05L35.1646 42.625C39.6962 39.625 40 39.075 40 34.25V22.725C40 17.9 39.6962 17.35 35.0633 14.275Z" fill="#1B1C1E"/>
<path d="M5.29117 14.1L8.81016 12.075L15.7469 8.125L16.076 7.925C18.3038 6.65 21.6962 6.65 23.9241 7.925L24.2532 8.125L31.1899 12.075L34.7089 14.075V8.725C34.7089 3.1 31.5696 0 25.8734 0H14.1013C8.40509 0 5.29117 3.1 5.29117 8.725V14.1Z" fill="#1B1C1E"/>
<path d="M27.1899 28.35L25.6203 30.25C25.3671 30.525 25.1899 31.075 25.2152 31.45L25.3671 33.9C25.4684 35.4 24.3798 36.175 22.962 35.625L20.6582 34.725C20.3038 34.6 19.6962 34.6 19.3418 34.725L17.038 35.625C15.6203 36.175 14.5317 35.4 14.6329 33.9L14.7848 31.45C14.8101 31.075 14.6329 30.525 14.3798 30.25L12.8101 28.35C11.8228 27.2 12.2532 25.925 13.7215 25.55L16.1266 24.9499C16.5063 24.8499 16.962 24.5 17.1646 24.175L18.5063 22.125C19.3418 20.85 20.6582 20.85 21.4937 22.125L22.8355 24.175C23.038 24.5 23.4937 24.8499 23.8734 24.9499L26.2785 25.55C27.7469 25.925 28.1772 27.2 27.1899 28.35Z" fill="#1B1C1E"/>
</g>
</svg>
