<svg width="60" height="58" viewBox="0 0 60 58" fill="none" xmlns="http://www.w3.org/2000/svg">
<path d="M38.2882 12.5908L41.796 19.4058C42.2687 20.3483 43.5375 21.2424 44.6073 21.4358L50.9514 22.4508C55.0066 23.1033 55.952 25.9549 53.0412 28.8066L48.0903 33.6158C47.2693 34.4133 46.7967 35.9841 47.0703 37.1199L48.4883 43.0649C49.6079 47.7533 47.0205 49.5899 42.7663 47.1249L36.8203 43.6933C35.7505 43.0649 33.9593 43.0649 32.8895 43.6933L26.9435 47.1249C22.6893 49.5658 20.1019 47.7533 21.2214 43.0649L22.6395 37.1199C22.9132 36.0083 22.4405 34.4374 21.6195 33.6158L16.6687 28.8066C13.7579 25.9791 14.7033 23.1274 18.7585 22.4508L25.1025 21.4358C26.1723 21.2666 27.4411 20.3483 27.9138 19.4058L31.4217 12.5908C33.2876 8.89325 36.3725 8.89325 38.2882 12.5908Z" fill="white"/>
<path opacity="0.4" d="M19.9029 13.8958H4.97572C3.9557 13.8958 3.10983 13.0741 3.10983 12.0833C3.10983 11.0924 3.9557 10.2708 4.97572 10.2708H19.9029C20.9229 10.2708 21.7688 11.0924 21.7688 12.0833C21.7688 13.0741 20.9229 13.8958 19.9029 13.8958Z" fill="white"/>
<path opacity="0.4" d="M12.4393 47.7292H4.97572C3.9557 47.7292 3.10983 46.9076 3.10983 45.9167C3.10983 44.9259 3.9557 44.1042 4.97572 44.1042H12.4393C13.4593 44.1042 14.3052 44.9259 14.3052 45.9167C14.3052 46.9076 13.4593 47.7292 12.4393 47.7292Z" fill="white"/>
<path opacity="0.4" d="M7.46358 30.8125H4.97572C3.9557 30.8125 3.10983 29.9908 3.10983 29C3.10983 28.0092 3.9557 27.1875 4.97572 27.1875H7.46358C8.4836 27.1875 9.32947 28.0092 9.32947 29C9.32947 29.9908 8.4836 30.8125 7.46358 30.8125Z" fill="white"/>
</svg>
