<svg width="40" height="37" viewBox="0 0 40 37" fill="none" xmlns="http://www.w3.org/2000/svg">
<g opacity="0.5">
<path opacity="0.4" d="M20 5.22782V37C19.66 37 19.3 36.9405 19.02 36.782L18.94 36.7423C15.1 34.6612 8.4 32.4809 4.06 31.9061L3.48 31.8269C1.56 31.589 0 29.8052 0 27.9024V3.95931C0 1.60068 1.94 -0.183158 4.32 0.0150461C8.52 0.351994 14.88 2.45296 18.44 4.65303L18.94 4.95034C19.24 5.12872 19.62 5.22782 20 5.22782Z" fill="#1B1C1E"/>
<path d="M40 3.97948V27.9028C40 29.8055 38.44 31.5894 36.52 31.8272L35.86 31.9065C31.5 32.4813 24.78 34.6814 20.94 36.7823C20.68 36.9409 20.36 37.0003 20 37.0003V5.22817C20.38 5.22817 20.76 5.12907 21.06 4.95068L21.4 4.73266C24.96 2.51277 31.34 0.391981 35.54 0.0352133H35.66C38.04 -0.162991 40 1.60103 40 3.97948Z" fill="#1B1C1E"/>
<path d="M11.5 13.037H7C6.18 13.037 5.5 12.3631 5.5 11.5505C5.5 10.7379 6.18 10.064 7 10.064H11.5C12.32 10.064 13 10.7379 13 11.5505C13 12.3631 12.32 13.037 11.5 13.037Z" fill="#1B1C1E"/>
<path d="M13 18.9831H7C6.18 18.9831 5.5 18.3092 5.5 17.4965C5.5 16.6839 6.18 16.01 7 16.01H13C13.82 16.01 14.5 16.6839 14.5 17.4965C14.5 18.3092 13.82 18.9831 13 18.9831Z" fill="#1B1C1E"/>
</g>
</svg>
