<svg width="126" height="41" viewBox="0 0 126 41" fill="none" xmlns="http://www.w3.org/2000/svg">
<circle cx="14.9286" cy="26.0714" r="14.4286" stroke="#FECE06"/>
<circle cx="26.0715" cy="14.9286" r="14.4286" stroke="#FECE06"/>
<circle cx="20.5" cy="20.5" r="13.9286" fill="#148E88"/>
<path d="M65.5568 20.2727C65.5568 22.1761 65.196 23.7955 64.4744 25.1307C63.7585 26.4659 62.7813 27.4858 61.5426 28.1903C60.3097 28.8892 58.9233 29.2386 57.3835 29.2386C55.8324 29.2386 54.4403 28.8864 53.2074 28.1818C51.9744 27.4773 51 26.4574 50.2841 25.1222C49.5682 23.7869 49.2102 22.1705 49.2102 20.2727C49.2102 18.3693 49.5682 16.75 50.2841 15.4148C51 14.0795 51.9744 13.0625 53.2074 12.3636C54.4403 11.6591 55.8324 11.3068 57.3835 11.3068C58.9233 11.3068 60.3097 11.6591 61.5426 12.3636C62.7813 13.0625 63.7585 14.0795 64.4744 15.4148C65.196 16.75 65.5568 18.3693 65.5568 20.2727ZM61.8153 20.2727C61.8153 19.0398 61.6307 18 61.2614 17.1534C60.8977 16.3068 60.3835 15.6648 59.7188 15.2273C59.054 14.7898 58.2756 14.571 57.3835 14.571C56.4915 14.571 55.7131 14.7898 55.0483 15.2273C54.3835 15.6648 53.8665 16.3068 53.4972 17.1534C53.1335 18 52.9517 19.0398 52.9517 20.2727C52.9517 21.5057 53.1335 22.5455 53.4972 23.392C53.8665 24.2386 54.3835 24.8807 55.0483 25.3182C55.7131 25.7557 56.4915 25.9744 57.3835 25.9744C58.2756 25.9744 59.054 25.7557 59.7188 25.3182C60.3835 24.8807 60.8977 24.2386 61.2614 23.392C61.6307 22.5455 61.8153 21.5057 61.8153 20.2727ZM74.1371 29.2557C72.7962 29.2557 71.6428 28.9716 70.6768 28.4034C69.7166 27.8295 68.978 27.0341 68.4609 26.017C67.9496 25 67.6939 23.8295 67.6939 22.5057C67.6939 21.1648 67.9524 19.9886 68.4695 18.9773C68.9922 17.9602 69.7337 17.1676 70.6939 16.5994C71.6541 16.0256 72.7962 15.7386 74.12 15.7386C75.2621 15.7386 76.2621 15.946 77.12 16.3608C77.978 16.7756 78.657 17.358 79.157 18.108C79.657 18.858 79.9325 19.7386 79.9837 20.75H76.5575C76.4609 20.0966 76.2053 19.571 75.7905 19.1733C75.3814 18.7699 74.8445 18.5682 74.1797 18.5682C73.6172 18.5682 73.1257 18.7216 72.7053 19.0284C72.2905 19.3295 71.9666 19.7699 71.7337 20.3494C71.5007 20.929 71.3842 21.6307 71.3842 22.4545C71.3842 23.2898 71.4979 24 71.7251 24.5852C71.9581 25.1705 72.2848 25.6165 72.7053 25.9233C73.1257 26.2301 73.6172 26.3835 74.1797 26.3835C74.5945 26.3835 74.9666 26.2983 75.2962 26.1278C75.6314 25.9574 75.907 25.7102 76.1229 25.3864C76.3445 25.0568 76.4893 24.6619 76.5575 24.2017H79.9837C79.9268 25.2017 79.6541 26.0824 79.1655 26.8438C78.6825 27.5994 78.0149 28.1903 77.1626 28.6165C76.3104 29.0426 75.3018 29.2557 74.1371 29.2557ZM90.7031 23.4261V15.9091H94.3338V29H90.848V26.6222H90.7116C90.4162 27.3892 89.9247 28.0057 89.2372 28.4716C88.5554 28.9375 87.723 29.1705 86.7401 29.1705C85.8651 29.1705 85.0952 28.9716 84.4304 28.5739C83.7656 28.1761 83.2457 27.6108 82.8707 26.8778C82.5014 26.1449 82.3139 25.267 82.3082 24.2443V15.9091H85.9389V23.5966C85.9446 24.3693 86.152 24.9801 86.5611 25.429C86.9702 25.8778 87.5185 26.1023 88.206 26.1023C88.6435 26.1023 89.0526 26.0028 89.4332 25.804C89.8139 25.5994 90.1207 25.2983 90.3537 24.9006C90.5923 24.5028 90.7088 24.0114 90.7031 23.4261Z" fill="#148E88"/>
<path d="M97.3061 29V11.5455H100.937V18.108H101.048C101.207 17.7557 101.437 17.3977 101.738 17.0341C102.045 16.6648 102.442 16.358 102.931 16.1136C103.425 15.8636 104.039 15.7386 104.772 15.7386C105.727 15.7386 106.607 15.9886 107.414 16.4886C108.221 16.983 108.866 17.7301 109.349 18.7301C109.832 19.7244 110.073 20.9716 110.073 22.4716C110.073 23.9318 109.837 25.1648 109.366 26.1705C108.9 27.1705 108.263 27.929 107.457 28.446C106.656 28.9574 105.758 29.2131 104.763 29.2131C104.059 29.2131 103.46 29.0966 102.965 28.8636C102.477 28.6307 102.076 28.3381 101.763 27.9858C101.451 27.6278 101.212 27.267 101.048 26.9034H100.886V29H97.3061ZM100.86 22.4545C100.86 23.233 100.968 23.9119 101.184 24.4915C101.4 25.071 101.712 25.5227 102.121 25.8466C102.531 26.1648 103.028 26.3239 103.613 26.3239C104.204 26.3239 104.704 26.1619 105.113 25.8381C105.522 25.5085 105.832 25.054 106.042 24.4744C106.258 23.8892 106.366 23.2159 106.366 22.4545C106.366 21.6989 106.261 21.0341 106.05 20.4602C105.84 19.8864 105.531 19.4375 105.121 19.1136C104.712 18.7898 104.21 18.6278 103.613 18.6278C103.022 18.6278 102.522 18.7841 102.113 19.0966C101.71 19.4091 101.4 19.8523 101.184 20.4261C100.968 21 100.86 21.6761 100.86 22.4545ZM118.462 29.2557C117.115 29.2557 115.956 28.983 114.984 28.4375C114.018 27.8864 113.274 27.108 112.751 26.1023C112.229 25.0909 111.967 23.8949 111.967 22.5142C111.967 21.1676 112.229 19.9858 112.751 18.9688C113.274 17.9517 114.01 17.1591 114.959 16.5909C115.913 16.0227 117.033 15.7386 118.317 15.7386C119.18 15.7386 119.984 15.8778 120.729 16.1562C121.479 16.429 122.132 16.8409 122.689 17.392C123.251 17.9432 123.689 18.6364 124.001 19.4716C124.314 20.3011 124.47 21.2727 124.47 22.3864V23.3835H113.416V21.1335H121.053C121.053 20.6108 120.939 20.1477 120.712 19.7443C120.484 19.3409 120.169 19.0256 119.766 18.7983C119.368 18.5653 118.905 18.4489 118.376 18.4489C117.825 18.4489 117.337 18.5767 116.911 18.8324C116.49 19.0824 116.161 19.4205 115.922 19.8466C115.683 20.267 115.561 20.7358 115.555 21.2528V23.392C115.555 24.0398 115.675 24.5994 115.913 25.071C116.158 25.5426 116.501 25.9062 116.945 26.1619C117.388 26.4176 117.913 26.5455 118.521 26.5455C118.925 26.5455 119.294 26.4886 119.629 26.375C119.964 26.2614 120.251 26.0909 120.49 25.8636C120.729 25.6364 120.911 25.358 121.036 25.0284L124.393 25.25C124.223 26.0568 123.874 26.7614 123.345 27.3636C122.822 27.9602 122.146 28.4261 121.317 28.7614C120.493 29.0909 119.541 29.2557 118.462 29.2557Z" fill="#FECE06"/>
</svg>
